<svg xmlns="http://www.w3.org/2000/svg" width="1440" height="900"><path d="M626,492L455,401L517,660Z" fill="#77b2d7" stroke="#77b2d7" stroke-width="1.51"/><path d="M455,401L349,708L517,660Z" fill="#79b1d6" stroke="#79b1d6" stroke-width="1.51"/><path d="M349,708L455,796L517,660Z" fill="#70a7d1" stroke="#70a7d1" stroke-width="1.51"/><path d="M886,688L842,446L626,492Z" fill="#5fa4d1" stroke="#5fa4d1" stroke-width="1.51"/><path d="M455,401L228,588L349,708Z" fill="#82b6d9" stroke="#82b6d9" stroke-width="1.51"/><path d="M455,796L524,832L517,660Z" fill="#68a1ce" stroke="#68a1ce" stroke-width="1.51"/><path d="M626,492L704,269L455,401Z" fill="#7fb8da" stroke="#7fb8da" stroke-width="1.51"/><path d="M842,446L704,269L626,492Z" fill="#71b1d8" stroke="#71b1d8" stroke-width="1.51"/><path d="M886,688L626,492L517,660Z" fill="#60a4d1" stroke="#60a4d1" stroke-width="1.51"/><path d="M791,890L886,688L517,660Z" fill="#5197ca" stroke="#5197ca" stroke-width="1.51"/><path d="M455,401L34,337L228,588Z" fill="#95c2e0" stroke="#95c2e0" stroke-width="1.51"/><path d="M704,269L429,111L455,401Z" fill="#95c4df" stroke="#95c4df" stroke-width="1.51"/><path d="M524,832L791,890L517,660Z" fill="#5b99ca" stroke="#5b99ca" stroke-width="1.51"/><path d="M214,110L34,337L455,401Z" fill="#a8cde5" stroke="#a8cde5" stroke-width="1.51"/><path d="M429,111L214,110L455,401Z" fill="#a7cde4" stroke="#a7cde4" stroke-width="1.51"/><path d="M704,269L540,-4L429,111Z" fill="#a1c9e3" stroke="#a1c9e3" stroke-width="1.51"/><path d="M842,446L937,238L704,269Z" fill="#76b1d7" stroke="#76b1d7" stroke-width="1.51"/><path d="M1133,563L937,238L842,446Z" fill="#5fa4d0" stroke="#5fa4d0" stroke-width="1.51"/><path d="M524,832L541,1053L791,890Z" fill="#548dc3" stroke="#548dc3" stroke-width="1.51"/><path d="M455,796L541,1053L524,832Z" fill="#6195c7" stroke="#6195c7" stroke-width="1.51"/><path d="M193,971L541,1053L455,796Z" fill="#6996c7" stroke="#6996c7" stroke-width="1.51"/><path d="M193,971L455,796L349,708Z" fill="#73a2cf" stroke="#73a2cf" stroke-width="1.51"/><path d="M193,971L349,708L228,588Z" fill="#7da9d4" stroke="#7da9d4" stroke-width="1.51"/><path d="M886,688L1012,663L842,446Z" fill="#509acb" stroke="#509acb" stroke-width="1.51"/><path d="M1121,987L1012,663L886,688Z" fill="#3987c1" stroke="#3987c1" stroke-width="1.51"/><path d="M929,40L540,-4L704,269Z" fill="#95c2e1" stroke="#95c2e1" stroke-width="1.51"/><path d="M429,111L381,-113L214,110Z" fill="#b9d5ea" stroke="#b9d5ea" stroke-width="1.51"/><path d="M-90,668L193,971L228,588Z" fill="#87afd7" stroke="#87afd7" stroke-width="1.51"/><path d="M381,-113L116,68L214,110Z" fill="#c1d9ed" stroke="#c1d9ed" stroke-width="1.51"/><path d="M214,110L116,68L34,337Z" fill="#bbd6eb" stroke="#bbd6eb" stroke-width="1.51"/><path d="M34,337L-90,668L228,588Z" fill="#98c1e1" stroke="#98c1e1" stroke-width="1.51"/><path d="M-83,337L-90,668L34,337Z" fill="#a4cae5" stroke="#a4cae5" stroke-width="1.51"/><path d="M116,68L-83,337L34,337Z" fill="#b7d6e9" stroke="#b7d6e9" stroke-width="1.51"/><path d="M1012,663L1133,563L842,446Z" fill="#4d99ca" stroke="#4d99ca" stroke-width="1.51"/><path d="M1287,926L1133,563L1012,663Z" fill="#3784bf" stroke="#3784bf" stroke-width="1.51"/><path d="M403,-147L381,-113L540,-4Z" fill="#b9d7ea" stroke="#b9d7ea" stroke-width="1.51"/><path d="M540,-4L381,-113L429,111Z" fill="#b4d3e8" stroke="#b4d3e8" stroke-width="1.51"/><path d="M937,238L929,40L704,269Z" fill="#85b8da" stroke="#85b8da" stroke-width="1.51"/><path d="M1148,145L929,40L937,238Z" fill="#81b2d7" stroke="#81b2d7" stroke-width="1.51"/><path d="M193,971L318,1211L541,1053Z" fill="#688bbd" stroke="#688bbd" stroke-width="1.51"/><path d="M-42,1002L79,1050L193,971Z" fill="#7d98c9" stroke="#7d98c9" stroke-width="1.51"/><path d="M38,-159L-30,-96L116,68Z" fill="#d1e2f3" stroke="#d1e2f3" stroke-width="1.51"/><path d="M604,-248L403,-147L540,-4Z" fill="#b6d5ea" stroke="#b6d5ea" stroke-width="1.51"/><path d="M791,890L1121,987L886,688Z" fill="#3a85c0" stroke="#3a85c0" stroke-width="1.51"/><path d="M541,1053L890,1109L791,890Z" fill="#4480bb" stroke="#4480bb" stroke-width="1.51"/><path d="M318,1211L890,1109L541,1053Z" fill="#517db3" stroke="#517db3" stroke-width="1.51"/><path d="M79,1050L318,1211L193,971Z" fill="#738fc1" stroke="#738fc1" stroke-width="1.51"/><path d="M79,1050L-189,1050L318,1211Z" fill="#7990c0" stroke="#7990c0" stroke-width="1.51"/><path d="M-90,668L-42,1002L193,971Z" fill="#84a5d2" stroke="#84a5d2" stroke-width="1.51"/><path d="M929,40L737,-176L540,-4Z" fill="#a0c7e4" stroke="#a0c7e4" stroke-width="1.51"/><path d="M-83,337L-252,630L-90,668Z" fill="#a0c5e3" stroke="#a0c5e3" stroke-width="1.51"/><path d="M-90,668L-189,1050L-42,1002Z" fill="#89a6d2" stroke="#89a6d2" stroke-width="1.51"/><path d="M116,68L-193,239L-83,337Z" fill="#bed9eb" stroke="#bed9eb" stroke-width="1.51"/><path d="M-30,-96L-193,239L116,68Z" fill="#cbdff0" stroke="#cbdff0" stroke-width="1.51"/><path d="M929,40L1043,-343L737,-176Z" fill="#9ec3e2" stroke="#9ec3e2" stroke-width="1.51"/><path d="M1133,563L1148,145L937,238Z" fill="#69a5d0" stroke="#69a5d0" stroke-width="1.51"/><path d="M-361,526L-252,630L-83,337Z" fill="#a8cbe6" stroke="#a8cbe6" stroke-width="1.51"/><path d="M890,1109L1121,987L791,890Z" fill="#3679b6" stroke="#3679b6" stroke-width="1.51"/><path d="M1133,563L1400,387L1148,145Z" fill="#5c99ca" stroke="#5c99ca" stroke-width="1.51"/><path d="M737,-176L604,-248L540,-4Z" fill="#afd0e9" stroke="#afd0e9" stroke-width="1.51"/><path d="M1148,145L1102,21L929,40Z" fill="#86b2d8" stroke="#86b2d8" stroke-width="1.51"/><path d="M737,-176L1043,-343L604,-248Z" fill="#aacce7" stroke="#aacce7" stroke-width="1.51"/><path d="M38,-159L116,68L381,-113Z" fill="#cbdef0" stroke="#cbdef0" stroke-width="1.51"/><path d="M38,-159L381,-113L403,-147Z" fill="#c8deef" stroke="#c8deef" stroke-width="1.51"/><path d="M-123,-344L38,-159L403,-147Z" fill="#d8e6f5" stroke="#d8e6f5" stroke-width="1.51"/><path d="M-193,239L-361,526L-83,337Z" fill="#b4d4ea" stroke="#b4d4ea" stroke-width="1.51"/><path d="M-400,820L-189,1050L-90,668Z" fill="#91afd8" stroke="#91afd8" stroke-width="1.51"/><path d="M-425,142L-361,526L-193,239Z" fill="#c1dbed" stroke="#c1dbed" stroke-width="1.51"/><path d="M-400,820L-90,668L-252,630Z" fill="#99bbde" stroke="#99bbde" stroke-width="1.51"/><path d="M-42,1002L-189,1050L79,1050Z" fill="#8199c9" stroke="#8199c9" stroke-width="1.51"/><path d="M890,1109L1031,1214L1121,987Z" fill="#2b6cab" stroke="#2b6cab" stroke-width="1.51"/><path d="M318,1211L1031,1214L890,1109Z" fill="#4072a9" stroke="#4072a9" stroke-width="1.51"/><path d="M1183,1224L1287,926L1121,987Z" fill="#2067ac" stroke="#2067ac" stroke-width="1.51"/><path d="M1121,987L1287,926L1012,663Z" fill="#2c79b9" stroke="#2c79b9" stroke-width="1.51"/><path d="M1287,926L1390,697L1133,563Z" fill="#2f7cbc" stroke="#2f7cbc" stroke-width="1.51"/><path d="M1148,145L1384,111L1102,21Z" fill="#7ea8d3" stroke="#7ea8d3" stroke-width="1.51"/><path d="M1431,459L1400,387L1133,563Z" fill="#498cc4" stroke="#498cc4" stroke-width="1.51"/><path d="M1390,697L1431,459L1133,563Z" fill="#3d86c0" stroke="#3d86c0" stroke-width="1.51"/><path d="M-361,526L-400,820L-252,630Z" fill="#a0c2e1" stroke="#a0c2e1" stroke-width="1.51"/><path d="M-400,820L-287,1088L-189,1050Z" fill="#8ea4cf" stroke="#8ea4cf" stroke-width="1.51"/><path d="M-189,1050L-287,1088L318,1211Z" fill="#7d92c0" stroke="#7d92c0" stroke-width="1.51"/><path d="M1601,817L1476,658L1390,697Z" fill="#2970b2" stroke="#2970b2" stroke-width="1.51"/><path d="M1031,1214L1183,1224L1121,987Z" fill="#2563a3" stroke="#2563a3" stroke-width="1.51"/><path d="M318,1211L1183,1224L1031,1214Z" fill="#376aa1" stroke="#376aa1" stroke-width="1.51"/><path d="M1409,97L1384,111L1573,260Z" fill="#7096c7" stroke="#7096c7" stroke-width="1.51"/><path d="M1400,387L1384,111L1148,145Z" fill="#6d9ccc" stroke="#6d9ccc" stroke-width="1.51"/><path d="M1102,21L1043,-343L929,40Z" fill="#93badd" stroke="#93badd" stroke-width="1.51"/><path d="M1573,260L1384,111L1400,387Z" fill="#6592c4" stroke="#6592c4" stroke-width="1.51"/><path d="M1390,697L1476,658L1431,459Z" fill="#377cb9" stroke="#377cb9" stroke-width="1.51"/><path d="M1601,817L1390,697L1287,926Z" fill="#216cb1" stroke="#216cb1" stroke-width="1.51"/><path d="M-361,526L-425,142L-400,820Z" fill="#afd0e8" stroke="#afd0e8" stroke-width="1.51"/><path d="M-308,-91L-425,142L-193,239Z" fill="#d4e5f4" stroke="#d4e5f4" stroke-width="1.51"/><path d="M-308,-91L-193,239L-30,-96Z" fill="#d6e5f4" stroke="#d6e5f4" stroke-width="1.51"/><path d="M1384,111L1409,97L1102,21Z" fill="#7ca3d1" stroke="#7ca3d1" stroke-width="1.51"/><path d="M1573,260L1400,387L1431,459Z" fill="#558ac0" stroke="#558ac0" stroke-width="1.51"/><path d="M-123,-344L-308,-91L-30,-96Z" fill="#e0ecf7" stroke="#e0ecf7" stroke-width="1.51"/><path d="M1247,-336L1043,-343L1102,21Z" fill="#97b8dd" stroke="#97b8dd" stroke-width="1.51"/><path d="M604,-248L-123,-344L403,-147Z" fill="#cde2f1" stroke="#cde2f1" stroke-width="1.51"/><path d="M38,-159L-123,-344L-30,-96Z" fill="#ddeaf7" stroke="#ddeaf7" stroke-width="1.51"/><path d="M1043,-343L-123,-344L604,-248Z" fill="#c2dded" stroke="#c2dded" stroke-width="1.51"/><path d="M-308,-91L-356,-140L-425,142Z" fill="#e0ecf8" stroke="#e0ecf8" stroke-width="1.51"/><path d="M-123,-344L-356,-140L-308,-91Z" fill="#e6f0f9" stroke="#e6f0f9" stroke-width="1.51"/><path d="M1720,614L1573,260L1431,459Z" fill="#467fb9" stroke="#467fb9" stroke-width="1.51"/><path d="M1409,97L1247,-336L1102,21Z" fill="#89abd6" stroke="#89abd6" stroke-width="1.51"/><path d="M1476,658L1720,614L1431,459Z" fill="#3778b6" stroke="#3778b6" stroke-width="1.51"/><path d="M1539,1040L1601,817L1287,926Z" fill="#1761a8" stroke="#1761a8" stroke-width="1.51"/><path d="M1461,-284L1247,-336L1409,97Z" fill="#8ba8d3" stroke="#8ba8d3" stroke-width="1.51"/><path d="M1183,1224L1539,1040L1287,926Z" fill="#155ea5" stroke="#155ea5" stroke-width="1.51"/><path d="M1780,929L1720,614L1601,817Z" fill="#1f5fa1" stroke="#1f5fa1" stroke-width="1.51"/><path d="M1601,817L1720,614L1476,658Z" fill="#286cad" stroke="#286cad" stroke-width="1.51"/><path d="M1685,32L1635,55L1807,157Z" fill="#7089b9" stroke="#7089b9" stroke-width="1.51"/><path d="M1573,260L1635,55L1409,97Z" fill="#6f92c4" stroke="#6f92c4" stroke-width="1.51"/><path d="M1635,55L1461,-284L1409,97Z" fill="#809bcb" stroke="#809bcb" stroke-width="1.51"/><path d="M1635,55L1685,32L1461,-284Z" fill="#7e96c6" stroke="#7e96c6" stroke-width="1.51"/><path d="M1807,157L1635,55L1573,260Z" fill="#6a89ba" stroke="#6a89ba" stroke-width="1.51"/><path d="M1720,614L1817,388L1573,260Z" fill="#4778af" stroke="#4778af" stroke-width="1.51"/><path d="M1780,929L1817,388L1720,614Z" fill="#2b65a1" stroke="#2b65a1" stroke-width="1.51"/><path d="M1539,1040L1780,929L1601,817Z" fill="#12579f" stroke="#12579f" stroke-width="1.51"/><path d="M1763,1097L1780,929L1539,1040Z" fill="#0c4d94" stroke="#0c4d94" stroke-width="1.51"/><path d="M1817,388L1807,157L1573,260Z" fill="#5b80b0" stroke="#5b80b0" stroke-width="1.51"/><path d="M1685,32L1858,-300L1461,-284Z" fill="#8495c2" stroke="#8495c2" stroke-width="1.51"/><path d="M1183,1224L1763,1097L1539,1040Z" fill="#0e5098" stroke="#0e5098" stroke-width="1.51"/><path d="M1817,388L1858,-300L1807,157Z" fill="#6c81ae" stroke="#6c81ae" stroke-width="1.51"/><path d="M1807,157L1858,-300L1685,32Z" fill="#7789b5" stroke="#7789b5" stroke-width="1.51"/><path d="M1461,-284L1858,-300L1247,-336Z" fill="#90a3cf" stroke="#90a3cf" stroke-width="1.51"/></svg>